<mxfile host="app.diagrams.net" modified="2023-09-12T19:41:41.265Z" agent="Mozilla/5.0 (Windows NT 10.0; Win64; x64) AppleWebKit/537.36 (KHTML, like Gecko) Chrome/116.0.0.0 Safari/537.36" etag="qRgqm40uXINXxjmhmGjx" version="21.7.2" type="device">
  <diagram name="Página-1" id="ioh_jA1jUlITBozOJF3T">
    <mxGraphModel dx="880" dy="470" grid="1" gridSize="10" guides="1" tooltips="1" connect="1" arrows="1" fold="1" page="1" pageScale="1" pageWidth="827" pageHeight="1169" math="0" shadow="0">
      <root>
        <mxCell id="0" />
        <mxCell id="1" parent="0" />
        <mxCell id="R-9I05GJjLdfQvphlAa_-16" style="edgeStyle=orthogonalEdgeStyle;rounded=0;orthogonalLoop=1;jettySize=auto;html=1;" edge="1" parent="1" source="R-9I05GJjLdfQvphlAa_-1" target="R-9I05GJjLdfQvphlAa_-3">
          <mxGeometry relative="1" as="geometry">
            <Array as="points">
              <mxPoint x="765" y="430" />
              <mxPoint x="420" y="430" />
            </Array>
          </mxGeometry>
        </mxCell>
        <mxCell id="R-9I05GJjLdfQvphlAa_-22" style="edgeStyle=orthogonalEdgeStyle;rounded=0;orthogonalLoop=1;jettySize=auto;html=1;entryX=0.043;entryY=0.714;entryDx=0;entryDy=0;entryPerimeter=0;" edge="1" parent="1" source="R-9I05GJjLdfQvphlAa_-1" target="R-9I05GJjLdfQvphlAa_-9">
          <mxGeometry relative="1" as="geometry">
            <Array as="points">
              <mxPoint x="790" y="410" />
              <mxPoint x="470" y="410" />
              <mxPoint x="470" y="360" />
            </Array>
          </mxGeometry>
        </mxCell>
        <mxCell id="R-9I05GJjLdfQvphlAa_-25" style="edgeStyle=orthogonalEdgeStyle;rounded=0;orthogonalLoop=1;jettySize=auto;html=1;" edge="1" parent="1" source="R-9I05GJjLdfQvphlAa_-1" target="R-9I05GJjLdfQvphlAa_-8">
          <mxGeometry relative="1" as="geometry" />
        </mxCell>
        <mxCell id="R-9I05GJjLdfQvphlAa_-26" style="edgeStyle=orthogonalEdgeStyle;rounded=0;orthogonalLoop=1;jettySize=auto;html=1;" edge="1" parent="1" source="R-9I05GJjLdfQvphlAa_-1" target="R-9I05GJjLdfQvphlAa_-7">
          <mxGeometry relative="1" as="geometry" />
        </mxCell>
        <mxCell id="R-9I05GJjLdfQvphlAa_-27" style="edgeStyle=orthogonalEdgeStyle;rounded=0;orthogonalLoop=1;jettySize=auto;html=1;entryX=1;entryY=0.5;entryDx=0;entryDy=0;" edge="1" parent="1" source="R-9I05GJjLdfQvphlAa_-1" target="R-9I05GJjLdfQvphlAa_-6">
          <mxGeometry relative="1" as="geometry" />
        </mxCell>
        <mxCell id="R-9I05GJjLdfQvphlAa_-28" style="edgeStyle=orthogonalEdgeStyle;rounded=0;orthogonalLoop=1;jettySize=auto;html=1;entryX=1;entryY=0.5;entryDx=0;entryDy=0;" edge="1" parent="1" source="R-9I05GJjLdfQvphlAa_-1" target="R-9I05GJjLdfQvphlAa_-4">
          <mxGeometry relative="1" as="geometry">
            <Array as="points">
              <mxPoint x="730" y="60" />
              <mxPoint x="730" y="275" />
            </Array>
          </mxGeometry>
        </mxCell>
        <mxCell id="R-9I05GJjLdfQvphlAa_-29" style="edgeStyle=orthogonalEdgeStyle;rounded=0;orthogonalLoop=1;jettySize=auto;html=1;entryX=0.607;entryY=0.05;entryDx=0;entryDy=0;entryPerimeter=0;" edge="1" parent="1" source="R-9I05GJjLdfQvphlAa_-1" target="R-9I05GJjLdfQvphlAa_-5">
          <mxGeometry relative="1" as="geometry">
            <Array as="points">
              <mxPoint x="429" y="80" />
            </Array>
          </mxGeometry>
        </mxCell>
        <mxCell id="R-9I05GJjLdfQvphlAa_-1" value="Bibliotecário" style="shape=umlActor;verticalLabelPosition=bottom;verticalAlign=top;html=1;outlineConnect=0;" vertex="1" parent="1">
          <mxGeometry x="740" y="10" width="50" height="100" as="geometry" />
        </mxCell>
        <mxCell id="R-9I05GJjLdfQvphlAa_-13" style="edgeStyle=orthogonalEdgeStyle;rounded=0;orthogonalLoop=1;jettySize=auto;html=1;entryX=0;entryY=0.5;entryDx=0;entryDy=0;exitX=0.5;exitY=0.5;exitDx=0;exitDy=0;exitPerimeter=0;" edge="1" parent="1" source="R-9I05GJjLdfQvphlAa_-2" target="R-9I05GJjLdfQvphlAa_-5">
          <mxGeometry relative="1" as="geometry" />
        </mxCell>
        <mxCell id="R-9I05GJjLdfQvphlAa_-17" style="edgeStyle=orthogonalEdgeStyle;rounded=0;orthogonalLoop=1;jettySize=auto;html=1;entryX=0;entryY=0.5;entryDx=0;entryDy=0;" edge="1" parent="1" source="R-9I05GJjLdfQvphlAa_-2" target="R-9I05GJjLdfQvphlAa_-3">
          <mxGeometry relative="1" as="geometry">
            <Array as="points">
              <mxPoint x="215" y="210" />
              <mxPoint x="292" y="210" />
              <mxPoint x="292" y="235" />
            </Array>
          </mxGeometry>
        </mxCell>
        <mxCell id="R-9I05GJjLdfQvphlAa_-2" value="Leitor" style="shape=umlActor;verticalLabelPosition=bottom;verticalAlign=top;html=1;outlineConnect=0;" vertex="1" parent="1">
          <mxGeometry x="80" y="130" width="50" height="100" as="geometry" />
        </mxCell>
        <mxCell id="R-9I05GJjLdfQvphlAa_-3" value="&lt;b&gt;&lt;font style=&quot;font-size: 15px;&quot;&gt;devolução&lt;/font&gt;&lt;/b&gt;" style="ellipse;whiteSpace=wrap;html=1;" vertex="1" parent="1">
          <mxGeometry x="344" y="200" width="140" height="70" as="geometry" />
        </mxCell>
        <mxCell id="R-9I05GJjLdfQvphlAa_-4" value="&lt;font style=&quot;font-size: 15px;&quot;&gt;&lt;b&gt;livros disponíveis&lt;/b&gt;&lt;/font&gt;" style="ellipse;whiteSpace=wrap;html=1;" vertex="1" parent="1">
          <mxGeometry x="530" y="240" width="140" height="70" as="geometry" />
        </mxCell>
        <mxCell id="R-9I05GJjLdfQvphlAa_-5" value="&lt;b&gt;&lt;font style=&quot;font-size: 15px;&quot;&gt;empréstimo&lt;/font&gt;&lt;/b&gt;" style="ellipse;whiteSpace=wrap;html=1;" vertex="1" parent="1">
          <mxGeometry x="344" y="120" width="140" height="60" as="geometry" />
        </mxCell>
        <mxCell id="R-9I05GJjLdfQvphlAa_-6" value="&lt;b&gt;&lt;font style=&quot;font-size: 15px;&quot;&gt;registrar leitor&lt;/font&gt;&lt;/b&gt;" style="ellipse;whiteSpace=wrap;html=1;" vertex="1" parent="1">
          <mxGeometry x="530" y="160" width="140" height="70" as="geometry" />
        </mxCell>
        <mxCell id="R-9I05GJjLdfQvphlAa_-7" value="&lt;b&gt;&lt;font style=&quot;font-size: 15px;&quot;&gt;historico&lt;/font&gt;&lt;/b&gt;" style="ellipse;whiteSpace=wrap;html=1;" vertex="1" parent="1">
          <mxGeometry x="520" y="80" width="140" height="70" as="geometry" />
        </mxCell>
        <mxCell id="R-9I05GJjLdfQvphlAa_-8" value="&lt;font style=&quot;font-size: 15px;&quot;&gt;&lt;b&gt;leitores registrados&lt;/b&gt;&lt;/font&gt;" style="ellipse;whiteSpace=wrap;html=1;" vertex="1" parent="1">
          <mxGeometry x="520" width="140" height="70" as="geometry" />
        </mxCell>
        <mxCell id="R-9I05GJjLdfQvphlAa_-9" value="&lt;font style=&quot;font-size: 15px;&quot;&gt;&lt;b&gt;livros emprestados&lt;/b&gt;&lt;/font&gt;" style="ellipse;whiteSpace=wrap;html=1;" vertex="1" parent="1">
          <mxGeometry x="540" y="310" width="140" height="70" as="geometry" />
        </mxCell>
      </root>
    </mxGraphModel>
  </diagram>
</mxfile>
